<svg xmlns="http://www.w3.org/2000/svg" width="1280" height="800" viewBox="0 0 1280 800"><defs><linearGradient id="glass" x2="1" y2="1"><stop stop-color="#393939"/><stop offset="1" stop-color="#181818"/></linearGradient><linearGradient id="signature" x1="0" y1="0" x2="1" y2="1"><stop stop-color="#FFD5BB"/><stop offset=".48" stop-color="#FF7A36"/><stop offset="1" stop-color="#FF642D"/></linearGradient></defs><rect x="0" y="0" width="1280" height="800" rx="28" fill="#101010" stroke="none"/><text x="40" y="54.0" font-family="Inter,Arial,sans-serif" font-size="27" font-weight="600" fill="#FFF7EF">SETGO /</text><text x="1060" y="49.0" font-family="Inter,Arial,sans-serif" font-size="16" font-weight="500" fill="#FFD5BB">PARK  •  09:41</text><rect x="40" y="80" width="1200" height="1" rx="0" fill="#494949" stroke="none"/><text x="40" y="125.0" font-family="Inter,Arial,sans-serif" font-size="13" font-weight="600" fill="#C9C9C9">GET SET. THEN GO.</text><text x="40" y="202.0" font-family="Inter,Arial,sans-serif" font-size="48" font-weight="500" fill="#FFF7EF">A new car.</text><text x="40" y="263.44" font-family="Inter,Arial,sans-serif" font-size="48" font-weight="500" fill="#FFF7EF">A familiar feeling.</text><text x="42" y="302.0" font-family="Inter,Arial,sans-serif" font-size="20" font-weight="400" fill="#C9C9C9">Get comfortable. Find your controls. Connect when you want to.</text><rect x="735" y="140" width="505" height="512" rx="24" fill="url(#glass)" stroke="none"/><text x="765" y="181.0" font-family="Inter,Arial,sans-serif" font-size="13" font-weight="600" fill="#C9C9C9">YOUR SPACE / YOUR PACE</text><svg x="780" y="250" width="400" height="240" viewBox="0 0 400 240"><path d="M40 150 L65 96 Q76 75 107 70 L242 70 Q269 72 293 111 L344 125 Q360 130 360 151 L360 179 L40 179Z" fill="#303030" stroke="#FF7A36" stroke-width="3"/><path d="M88 104 L109 82 L237 82 L269 116 L82 116Z" fill="#101010" stroke="#B9B9B9" stroke-width="2"/><path d="M183 81 L183 117 M55 139 L98 139 M310 139 L346 146" stroke="#C9C9C9" stroke-width="3"/><circle cx="108" cy="176" r="29" fill="#101010" stroke="#C9C9C9" stroke-width="3"/><circle cx="290" cy="176" r="29" fill="#101010" stroke="#C9C9C9" stroke-width="3"/><circle cx="108" cy="176" r="13" fill="#494949"/><circle cx="290" cy="176" r="13" fill="#494949"/></svg><text x="765" y="547.0" font-family="Inter,Arial,sans-serif" font-size="17" font-weight="600" fill="#FF7A36">A FAMILIAR START</text><text x="765" y="584.0" font-family="Inter,Arial,sans-serif" font-size="17" font-weight="400" fill="#C9C9C9">Settle in before setting off.</text><rect x="40" y="690" width="1200" height="1" rx="0" fill="#494949" stroke="none"/><rect x="40" y="710" width="112" height="64" rx="14" fill="#242424"/><text x="96.0" y="749" text-anchor="middle" font-family="Inter,Arial,sans-serif" font-size="19" fill="#FFF7EF">Back</text><rect x="920" y="710" width="320" height="64" rx="14" fill="url(#signature)"/><text x="1080.0" y="749" text-anchor="middle" font-family="Inter,Arial,sans-serif" font-size="19" fill="#101010">Get set</text><rect x="180" y="710" width="380" height="64" rx="14" fill="#242424"/><text x="370.0" y="749" text-anchor="middle" font-family="Inter,Arial,sans-serif" font-size="19" fill="#FFF7EF">Explore on my own</text><text x="750" y="750.0" font-family="Inter,Arial,sans-serif" font-size="16" font-weight="400" fill="#C9C9C9">0 / 5</text><rect x="765" y="205" width="445" height="5" rx="2.5" fill="url(#signature)"/></svg>